# xmcd CD database file
#
# Track frame offsets:
#	150
#	25469
#	41795
#	58753
#	77785
#	93830
#	107989
#	129827
#	154619
#	173333
#	191052
#	209179
#	226720
#	248156
#	265408
#	289977
#	309990
#
# Disc length: 4294 seconds
#
# Revision: 1
# Processed by: cddbd v1.5.2PL0 Copyright (c) Steve Scherf et al.
# Submitted via: CDex 1.51
#
DISCID=eb10c411
DTITLE=diverse - Mystera III Best
DYEAR=1900
DGENRE=New Age
TTITLE0=Emma Shaplin - Spente Le Stelle
TTITLE1=Morana - Mystera
TTITLE2=Era - Ameno
TTITLE3=Enigma - Sadness
TTITLE4=Gregorian - So Sad
TTITLE5=Flowers - Kiato
TTITLE6=Pilgrimage - Trough The Seas Of Life
TTITLE7=Vangelis - Conquest Of Paradise
TTITLE8=Enya - Storms In Africa
TTITLE9=Ademis - Ademis
TTITLE10=Sarah Brightman - Eden
TTITLE11=Mike Oldfield - Sentiel
TTITLE12=Varymbaalha - African Dream
TTITLE13=Delorean - Gloria
TTITLE14=Mind Over Matter - Shangri - La
TTITLE15=Michael Flately's - Lord Of The Dance - Cry Of The Celts
TTITLE16=Carmina Burana(O Fortuna)
EXTD=
EXTT0=
EXTT1=
EXTT2=
EXTT3=
EXTT4=
EXTT5=
EXTT6=
EXTT7=
EXTT8=
EXTT9=
EXTT10=
EXTT11=
EXTT12=
EXTT13=
EXTT14=
EXTT15=
EXTT16=
PLAYORDER=
